{"title":"Mission.Impossible.Rogue.Nation.2015.TS.x264-MenaceIISociety","uid":12193206,"size":1105414672,"categoryP":"video","categoryS":"movies","magnet":"?xt=urn:btih:7e7909959383fa86951cd3ba07aef3066521e013&amp;dn=Mission.Impossible.Rogue.Nation.2015.TS.x264-MenaceIISociety&amp;tr=udp%3A%2F%2Ftracker.openbittorrent.com%3A80&amp;tr=udp%3A%2F%2Fopen.demonii.com%3A1337&amp;tr=udp%3A%2F%2Ftracker.coppersurfer.tk%3A6969&amp;tr=udp%3A%2F%2Fexodus.desync.com%3A6969","seeders":0,"leechers":0,"uploader":"TvTeam","files":4,"time":1438695571,"description":"------------------------------------------------------------------------\n\n &lt;a href=&quot; https://www.torrenting.com&quot; rel=&quot;nofollow&quot; target=&quot;_NEW&quot;&gt; https://www.torrenting.com&lt;/a&gt;\n\nSign up is OPEN - for time being. Come and have fun\n\n.......................................................................................................................[center][img]http://s17.postimg.org/8c0k1agq7/Untitled_1.jpg[/img]\n\nMission.Impossible.Rogue.Nation.2015.TS.x264-MenaceIISociety &lt;a href=&quot;\nhttp://www.imdb.com/title/tt2381249/&quot; rel=&quot;nofollow&quot; target=&quot;_NEW&quot;&gt;\nhttp://www.imdb.com/title/tt2381249/&lt;/a&gt;\n\nSource: HiVE-CM8 [THANKS]\n\nNOTE: missing the few mins at start, will do a v2 WHEN THAT APPEARS, cheers to HiVE-CM8 for bringing it for us all, anyways resized, adjusted some coef, gain, lum, sat and gamma.\n\nGeneral\nComplete name                            : Mission.Impossible.Rogue.Nation.2015.TS.x264-MenaceIISociety.mp4\nFormat                                   : MPEG-4\nFormat profile                           : Base Media\nCodec ID                                 : isom\nFile size                                : 1.02 GiB\nDuration                                 : 1h 59mn\nOverall bit rate mode                    : Variable\nOverall bit rate                         : 1 217 Kbps\nEncoded date                             : UTC 2015-08-02 09:33:26\nTagged date                              : UTC 2015-08-02 09:33:26\n\nVideo\nID                                       : 1\nFormat                                   : AVC\nFormat/Info                              : Advanced Video Codec\nFormat profile                           : &lt;a class=&quot;__cf_email__&quot; href=&quot;/cdn-cgi/l/email-protection&quot; data-cfemail=&quot;4e062729260e027a607f&quot;&gt;[email&amp;#160;protected]&lt;/a&gt;&lt;script data-cfhash='f9e31' type=&quot;text/javascript&quot;&gt;\n/* &lt;![CDATA[ */!function(){try{var t=&quot;currentScript&quot;in document?document.currentScript:function(){for(var t=document.getElementsByTagName(&quot;script&quot;),e=t.length;e--;)if(t[e].getAttribute(&quot;data-cfhash&quot;))return t[e]}();if(t&amp;&amp;t.previousSibling){var e,r,n,i,c=t.previousSibling,a=c.getAttribute(&quot;data-cfemail&quot;);if(a){for(e=&quot;&quot;,r=parseInt(a.substr(0,2),16),n=2;a.length-n;n+=2)i=parseInt(a.substr(n,2),16)^r,e+=String.fromCharCode(i);e=document.createTextNode(e),c.parentNode.replaceChild(e,c)}t.parentNode.removeChild(t);}}catch(u){}}()/* ]]&gt; */&lt;/script&gt;\nFormat settings, CABAC                   : Yes\nFormat settings, ReFrames                : 3 frames\nCodec ID                                 : avc1\nCodec ID/Info                            : Advanced Video Coding\nDuration                                 : 1h 59mn\nBit rate mode                            : Variable\nBit rate                                 : 1 089 Kbps\nMaximum bit rate                         : 40.0 Mbps\nWidth                                    : 720 pixels\nHeight                                   : 332 pixels\nDisplay aspect ratio                     : 2.2:1\nFrame rate mode                          : Constant\nFrame rate                               : 29.970 fps\nColor space                              : YUV\nChroma subsampling                       : 4:2:0\nBit depth                                : 8 bits\nScan type                                : Progressive\nBits/(Pixel*Frame)                       : 0.152\nStream size                              : 930 MiB (89%)\nWriting library                          : x264 core 148 r2579 73ae2d1\n\nAudio\nID                                       : 2\nFormat                                   : AAC\nFormat/Info                              : Advanced Audio Codec\nFormat profile                           : LC\nCodec ID                                 : 40\nDuration                                 : 1h 59mn\nBit rate mode                            : Variable\nBit rate                                 : 124 Kbps\nMaximum bit rate                         : 147 Kbps\nChannel(s)                               : 2 channels\nChannel positions                        : Front: L R\nSampling rate                            : 48.0 KHz\nCompression mode                         : Lossy\nStream size                              : 106 MiB (10%)\nEncoded date                             : UTC 2015-08-02 09:28:02\nTagged date                              : UTC 2015-08-02 09:36:04\n\n[img]http://s7.postimg.org/76w993s4r/image.jpg[/img]\n[img]http://s7.postimg.org/xt8py2wbv/image.jpg[/img]\n[img]http://s7.postimg.org/o9z14m8tn/image.jpg[/img]\n[img]http://s7.postimg.org/erza4kn57/image.jpg[/img]\n[img]http://s7.postimg.org/ncslvqxbf/image.jpg[/img]\n[img]http://s7.postimg.org/a9wzch73f/image.jpg[/img]\n[img]http://s7.postimg.org/cm4za2jor/image.jpg[/img]\n[img]http://s7.postimg.org/wjawj12jv/image.jpg[/img]\n[img]http://s7.postimg.org/q9k89rsiz/image.jpg[/img]\n[img]http://s7.postimg.org/yt3m7j0vf/image.jpg[/img]\n[img]http://s7.postimg.org/9oclu41ez/image.jpg[/img]\n &lt;a href=&quot;\nhttp://i.imgur.com/AZ2S1Eo.gif&quot; rel=&quot;nofollow&quot; target=&quot;_NEW&quot;&gt;\nhttp://i.imgur.com/AZ2S1Eo.gif&lt;/a&gt;\n[img]http://s17.postimg.org/r1iiyw8yn/Untitled_1.png[/img][/center]","torrent":{"xt":"urn:btih:7e7909959383fa86951cd3ba07aef3066521e013","amp;dn":"Mission.Impossible.Rogue.Nation.2015.TS.x264-MenaceIISociety","amp;tr":["udp%3A%2F%2Ftracker.openbittorrent.com%3A80","udp%3A%2F%2Fopen.demonii.com%3A1337","udp%3A%2F%2Ftracker.coppersurfer.tk%3A6969","udp%3A%2F%2Fexodus.desync.com%3A6969"],"infoHash":"7e7909959383fa86951cd3ba07aef3066521e013","infoHashBuffer":{"type":"Buffer","data":[126,121,9,149,147,131,250,134,149,28,211,186,7,174,243,6,101,33,224,19]},"announce":[],"urlList":[]}}